<?xml version="1.0" encoding="UTF-8" ?>
<!DOCTYPE svg PUBLIC "-//W3C//DTD SVG 1.1//EN" "http://www.w3.org/Graphics/SVG/1.1/DTD/svg11.dtd">
<svg width="96pt" height="96pt" viewBox="0 0 96 96" version="1.1" xmlns="http://www.w3.org/2000/svg">
<g id="#7496c2ff">
<path fill="#7496c2" opacity="1.00" d=" M 4.67 4.67 C 33.56 4.61 62.44 4.61 91.33 4.67 C 91.20 33.51 91.15 62.35 91.18 91.18 C 62.35 91.15 33.51 91.20 4.67 91.33 C 4.61 62.44 4.61 33.56 4.67 4.67 M 7.21 7.21 C 7.19 11.92 7.19 16.63 7.21 21.34 C 12.00 21.37 16.79 21.36 21.57 21.35 C 21.62 16.64 21.60 11.92 21.60 7.21 C 16.80 7.19 12.00 7.19 7.21 7.21 M 24.01 7.20 C 23.98 12.00 23.97 16.80 24.02 21.60 C 28.81 21.60 33.60 21.62 38.39 21.57 C 38.41 16.79 38.42 12.00 38.39 7.21 C 33.60 7.19 28.80 7.19 24.01 7.20 M 40.97 7.21 C 40.93 12.00 40.93 16.79 40.97 21.59 C 45.71 21.61 50.44 21.60 55.18 21.59 C 55.22 16.80 55.22 12.01 55.18 7.21 C 50.44 7.19 45.71 7.19 40.97 7.21 M 57.85 7.21 C 57.83 12.00 57.82 16.79 57.86 21.59 C 62.56 21.61 67.27 21.60 71.98 21.60 C 72.03 16.80 72.02 12.00 71.99 7.20 C 67.28 7.19 62.56 7.19 57.85 7.21 M 74.66 7.21 C 74.63 12.00 74.64 16.78 74.65 21.57 C 79.36 21.62 84.07 21.60 88.79 21.60 C 88.81 16.80 88.81 12.00 88.79 7.21 C 84.08 7.19 79.37 7.19 74.66 7.21 M 7.20 24.01 C 7.19 28.72 7.19 33.44 7.21 38.15 C 12.00 38.17 16.80 38.18 21.59 38.14 C 21.61 33.43 21.60 28.73 21.60 24.02 C 16.80 23.97 12.00 23.98 7.20 24.01 M 24.00 24.00 C 23.99 28.79 23.99 33.58 24.00 38.38 C 24.00 38.99 24.00 40.22 24.00 40.83 C 23.99 45.61 23.99 50.39 24.00 55.17 C 24.00 55.78 24.00 57.01 24.00 57.62 C 23.99 62.42 23.99 67.21 24.01 72.00 C 24.01 72.59 24.01 73.78 24.01 74.38 C 23.98 79.18 23.99 83.98 24.01 88.78 C 28.82 88.84 33.63 88.65 38.43 88.91 C 39.00 88.88 40.14 88.82 40.72 88.79 C 45.57 88.78 50.43 88.78 55.29 88.79 C 55.86 88.82 57.00 88.88 57.57 88.92 C 62.41 88.64 67.26 88.85 72.11 88.78 C 72.68 88.82 73.82 88.89 74.39 88.92 C 79.18 88.64 83.98 88.84 88.78 88.78 C 88.84 83.98 88.64 79.18 88.92 74.39 C 88.89 73.82 88.82 72.68 88.78 72.11 C 88.82 67.27 88.69 62.44 88.88 57.61 C 88.88 57.01 88.88 55.80 88.87 55.20 C 88.73 50.40 88.73 45.60 88.87 40.80 C 88.87 40.20 88.88 39.00 88.88 38.40 C 88.70 33.60 88.81 28.80 88.78 24.01 C 83.98 23.99 79.18 23.98 74.38 24.01 C 73.78 24.01 72.59 24.01 72.00 24.01 C 67.21 23.99 62.42 23.99 57.62 24.00 C 57.01 24.00 55.78 24.00 55.17 24.01 C 50.39 23.99 45.61 23.99 40.83 24.00 C 40.22 24.00 38.99 24.00 38.38 24.00 C 33.58 23.99 28.79 23.99 24.00 24.00 M 7.21 40.82 C 7.19 45.56 7.19 50.29 7.21 55.03 C 12.00 55.07 16.79 55.07 21.59 55.03 C 21.61 50.30 21.61 45.57 21.59 40.85 C 16.80 40.76 12.01 40.79 7.21 40.82 M 7.21 57.61 C 7.19 62.40 7.19 67.20 7.20 71.99 C 12.00 72.02 16.80 72.03 21.60 71.98 C 21.59 67.19 21.62 62.40 21.57 57.61 C 16.79 57.59 12.00 57.58 7.21 57.61 M 7.21 74.40 C 7.19 79.20 7.19 84.00 7.21 88.79 C 12.00 88.81 16.80 88.81 21.60 88.79 C 21.60 84.00 21.61 79.20 21.59 74.41 C 16.80 74.39 12.00 74.40 7.21 74.40 Z" />
</g>
<g id="#c2e8ffff">
<path fill="#c2e8ff" opacity="1.00" d=" M 7.21 7.21 C 12.00 7.19 16.80 7.19 21.60 7.21 C 21.60 11.92 21.62 16.64 21.57 21.35 C 16.79 21.36 12.00 21.37 7.21 21.34 C 7.19 16.63 7.19 11.92 7.21 7.21 Z" />
<path fill="#c2e8ff" opacity="1.00" d=" M 24.01 7.20 C 28.80 7.19 33.60 7.19 38.39 7.21 C 38.42 12.00 38.41 16.79 38.39 21.57 C 33.60 21.62 28.81 21.60 24.02 21.60 C 23.97 16.80 23.98 12.00 24.01 7.20 Z" />
<path fill="#c2e8ff" opacity="1.00" d=" M 40.97 7.21 C 45.71 7.19 50.44 7.19 55.18 7.21 C 55.22 12.01 55.22 16.80 55.18 21.59 C 50.44 21.60 45.71 21.61 40.97 21.59 C 40.93 16.79 40.93 12.00 40.97 7.21 Z" />
<path fill="#c2e8ff" opacity="1.00" d=" M 57.85 7.21 C 62.56 7.19 67.28 7.19 71.99 7.20 C 72.02 12.00 72.03 16.80 71.98 21.60 C 67.27 21.60 62.56 21.61 57.86 21.59 C 57.82 16.79 57.83 12.00 57.85 7.21 Z" />
<path fill="#c2e8ff" opacity="1.00" d=" M 74.66 7.21 C 79.37 7.19 84.08 7.19 88.79 7.21 C 88.81 12.00 88.81 16.80 88.79 21.60 C 84.07 21.60 79.36 21.62 74.65 21.57 C 74.64 16.78 74.63 12.00 74.66 7.21 Z" />
<path fill="#c2e8ff" opacity="1.00" d=" M 7.20 24.01 C 12.00 23.98 16.80 23.97 21.60 24.02 C 21.60 28.73 21.61 33.43 21.59 38.14 C 16.80 38.18 12.00 38.17 7.21 38.15 C 7.19 33.44 7.19 28.72 7.20 24.01 Z" />
<path fill="#c2e8ff" opacity="1.00" d=" M 7.21 40.82 C 12.01 40.79 16.80 40.76 21.59 40.85 C 21.61 45.57 21.61 50.30 21.59 55.03 C 16.79 55.07 12.00 55.07 7.21 55.03 C 7.19 50.29 7.19 45.56 7.21 40.82 Z" />
<path fill="#c2e8ff" opacity="1.00" d=" M 7.21 57.61 C 12.00 57.58 16.79 57.59 21.57 57.61 C 21.62 62.40 21.59 67.19 21.60 71.98 C 16.80 72.03 12.00 72.02 7.20 71.99 C 7.19 67.20 7.19 62.40 7.21 57.61 Z" />
<path fill="#c2e8ff" opacity="1.00" d=" M 7.21 74.40 C 12.00 74.40 16.80 74.39 21.59 74.41 C 21.61 79.20 21.60 84.00 21.60 88.79 C 16.80 88.81 12.00 88.81 7.21 88.79 C 7.19 84.00 7.19 79.20 7.21 74.40 Z" />
</g>
<g id="#ffffffff">
<path fill="#ffffff" opacity="1.00" d=" M 24.00 24.00 C 28.79 23.99 33.58 23.99 38.38 24.00 C 38.41 28.78 38.41 33.56 38.33 38.33 C 33.56 38.41 28.78 38.41 24.00 38.38 C 23.99 33.58 23.99 28.79 24.00 24.00 Z" />
<path fill="#ffffff" opacity="1.00" d=" M 40.83 24.00 C 45.61 23.99 50.39 23.99 55.17 24.01 C 55.19 28.78 55.19 33.55 55.12 38.32 C 50.37 38.43 45.63 38.43 40.88 38.32 C 40.81 33.55 40.81 28.78 40.83 24.00 Z" />
<path fill="#ffffff" opacity="1.00" d=" M 57.62 24.00 C 62.42 23.99 67.21 23.99 72.00 24.01 C 72.01 28.78 72.01 33.56 71.96 38.34 C 67.19 38.43 62.43 38.43 57.67 38.33 C 57.59 33.55 57.59 28.78 57.62 24.00 Z" />
<path fill="#ffffff" opacity="1.00" d=" M 74.38 24.01 C 79.18 23.98 83.98 23.99 88.78 24.01 C 88.81 28.80 88.70 33.60 88.88 38.40 C 84.15 38.04 79.02 39.17 74.55 37.82 C 74.13 33.23 74.52 28.61 74.38 24.01 Z" />
<path fill="#ffffff" opacity="1.00" d=" M 24.00 40.83 C 28.78 40.81 33.55 40.81 38.32 40.88 C 38.44 45.63 38.43 50.37 38.32 55.12 C 33.55 55.20 28.78 55.19 24.00 55.17 C 23.99 50.39 23.99 45.61 24.00 40.83 Z" />
<path fill="#ffffff" opacity="1.00" d=" M 40.87 40.87 C 45.62 40.80 50.38 40.80 55.13 40.87 C 55.20 45.62 55.20 50.38 55.13 55.13 C 50.38 55.20 45.62 55.20 40.87 55.13 C 40.80 50.38 40.80 45.62 40.87 40.87 Z" />
<path fill="#ffffff" opacity="1.00" d=" M 57.66 40.87 C 62.43 40.80 67.20 40.80 71.97 40.86 C 72.02 45.62 72.02 50.38 71.96 55.14 C 67.19 55.20 62.43 55.20 57.66 55.13 C 57.58 50.38 57.58 45.62 57.66 40.87 Z" />
<path fill="#ffffff" opacity="1.00" d=" M 74.45 40.90 C 79.25 40.81 84.06 40.80 88.87 40.80 C 88.73 45.60 88.73 50.40 88.87 55.20 C 84.07 55.20 79.26 55.19 74.45 55.10 C 74.36 50.37 74.36 45.63 74.45 40.90 Z" />
<path fill="#ffffff" opacity="1.00" d=" M 24.00 57.62 C 28.78 57.59 33.55 57.59 38.33 57.67 C 38.43 62.43 38.43 67.19 38.34 71.96 C 33.56 72.01 28.78 72.01 24.01 72.00 C 23.99 67.21 23.99 62.42 24.00 57.62 Z" />
<path fill="#ffffff" opacity="1.00" d=" M 40.87 57.66 C 45.62 57.58 50.38 57.58 55.13 57.66 C 55.20 62.43 55.20 67.20 55.14 71.97 C 50.38 72.02 45.62 72.02 40.86 71.97 C 40.80 67.20 40.80 62.43 40.87 57.66 Z" />
<path fill="#ffffff" opacity="1.00" d=" M 57.66 57.66 C 62.43 57.59 67.20 57.59 71.97 57.64 C 72.02 62.42 72.01 67.20 71.98 71.98 C 67.20 72.01 62.42 72.02 57.64 71.97 C 57.59 67.20 57.58 62.43 57.66 57.66 Z" />
<path fill="#ffffff" opacity="1.00" d=" M 74.44 57.68 C 79.25 57.59 84.07 57.59 88.88 57.61 C 88.69 62.44 88.82 67.27 88.78 72.11 C 84.00 71.90 79.21 72.05 74.43 71.95 C 74.36 67.19 74.37 62.44 74.44 57.68 Z" />
<path fill="#ffffff" opacity="1.00" d=" M 24.01 74.38 C 28.79 74.39 33.57 74.38 38.34 74.46 C 38.40 79.28 38.39 84.10 38.43 88.91 C 33.63 88.65 28.82 88.84 24.01 88.78 C 23.99 83.98 23.98 79.18 24.01 74.38 Z" />
<path fill="#ffffff" opacity="1.00" d=" M 40.89 74.45 C 45.63 74.36 50.37 74.36 55.11 74.45 C 55.23 79.23 55.08 84.01 55.29 88.79 C 50.43 88.78 45.57 88.78 40.72 88.79 C 40.92 84.01 40.77 79.23 40.89 74.45 Z" />
<path fill="#ffffff" opacity="1.00" d=" M 57.66 74.47 C 62.42 74.36 67.18 74.36 71.95 74.43 C 72.05 79.21 71.89 84.00 72.11 88.78 C 67.26 88.85 62.41 88.64 57.57 88.92 C 57.61 84.10 57.60 79.28 57.66 74.47 Z" />
<path fill="#ffffff" opacity="1.00" d=" M 74.44 74.45 C 79.27 74.39 84.10 74.39 88.92 74.39 C 88.64 79.18 88.84 83.98 88.78 88.78 C 83.98 88.84 79.18 88.64 74.39 88.92 C 74.39 84.10 74.39 79.27 74.44 74.45 Z" />
</g>
<g id="#c6d5dfff">
<path fill="#c6d5df" opacity="1.00" d=" M 38.38 24.00 C 38.99 24.00 40.22 24.00 40.83 24.00 C 40.81 28.78 40.81 33.55 40.88 38.32 C 45.63 38.43 50.37 38.43 55.12 38.32 C 55.19 33.55 55.19 28.78 55.17 24.01 C 55.78 24.00 57.01 24.00 57.62 24.00 C 57.59 28.78 57.59 33.55 57.67 38.33 C 62.43 38.43 67.19 38.43 71.96 38.34 C 72.01 33.56 72.01 28.78 72.00 24.01 C 72.59 24.01 73.78 24.01 74.38 24.01 C 74.52 28.61 74.13 33.23 74.55 37.82 C 79.02 39.17 84.15 38.04 88.88 38.40 C 88.88 39.00 88.87 40.20 88.87 40.80 C 84.06 40.80 79.25 40.81 74.45 40.90 C 74.36 45.63 74.36 50.37 74.45 55.10 C 79.26 55.19 84.07 55.20 88.87 55.20 C 88.88 55.80 88.88 57.01 88.88 57.61 C 84.07 57.59 79.25 57.59 74.44 57.68 C 74.37 62.44 74.36 67.19 74.43 71.95 C 79.21 72.05 84.00 71.90 88.78 72.11 C 88.82 72.68 88.89 73.82 88.92 74.39 C 84.10 74.39 79.27 74.39 74.44 74.45 C 74.39 79.27 74.39 84.10 74.39 88.92 C 73.82 88.89 72.68 88.82 72.11 88.78 C 71.89 84.00 72.05 79.21 71.95 74.43 C 67.18 74.36 62.42 74.36 57.66 74.47 C 57.60 79.28 57.61 84.10 57.57 88.92 C 57.00 88.88 55.86 88.82 55.29 88.79 C 55.08 84.01 55.23 79.23 55.11 74.45 C 50.37 74.36 45.63 74.36 40.89 74.45 C 40.77 79.23 40.92 84.01 40.72 88.79 C 40.14 88.82 39.00 88.88 38.43 88.91 C 38.39 84.10 38.40 79.28 38.34 74.46 C 33.57 74.38 28.79 74.39 24.01 74.38 C 24.01 73.78 24.01 72.59 24.01 72.00 C 28.78 72.01 33.56 72.01 38.34 71.96 C 38.43 67.19 38.43 62.43 38.33 57.67 C 33.55 57.59 28.78 57.59 24.00 57.62 C 24.00 57.01 24.00 55.78 24.00 55.17 C 28.78 55.19 33.55 55.20 38.32 55.12 C 38.43 50.37 38.44 45.63 38.32 40.88 C 33.55 40.81 28.78 40.81 24.00 40.83 C 24.00 40.22 24.00 38.99 24.00 38.38 C 28.78 38.41 33.56 38.41 38.33 38.33 C 38.41 33.56 38.41 28.78 38.38 24.00 M 40.87 40.87 C 40.80 45.62 40.80 50.38 40.87 55.13 C 45.62 55.20 50.38 55.20 55.13 55.13 C 55.20 50.38 55.20 45.62 55.13 40.87 C 50.38 40.80 45.62 40.80 40.87 40.87 M 57.66 40.87 C 57.58 45.62 57.58 50.38 57.66 55.13 C 62.43 55.20 67.19 55.20 71.96 55.14 C 72.02 50.38 72.02 45.62 71.97 40.86 C 67.20 40.80 62.43 40.80 57.66 40.87 M 40.87 57.66 C 40.80 62.43 40.80 67.20 40.86 71.97 C 45.62 72.02 50.38 72.02 55.14 71.97 C 55.20 67.20 55.20 62.43 55.13 57.66 C 50.38 57.58 45.62 57.58 40.87 57.66 M 57.66 57.66 C 57.58 62.43 57.59 67.20 57.64 71.97 C 62.42 72.02 67.20 72.01 71.98 71.98 C 72.01 67.20 72.02 62.42 71.97 57.64 C 67.20 57.59 62.43 57.59 57.66 57.66 Z" />
</g>
</svg>
